<?xml version="1.0" encoding="utf-8"?>
<!-- Generator: Adobe Illustrator 16.0.0, SVG Export Plug-In . SVG Version: 6.00 Build 0)  -->
<!DOCTYPE svg PUBLIC "-//W3C//DTD SVG 1.1//EN" "http://www.w3.org/Graphics/SVG/1.1/DTD/svg11.dtd">
<svg version="1.1" id="Camada_1" xmlns="http://www.w3.org/2000/svg" xmlns:xlink="http://www.w3.org/1999/xlink" x="0px" y="0px"
	 width="413.025px" height="685.185px" viewBox="0 0 413.025 685.185" enable-background="new 0 0 413.025 685.185"
	 xml:space="preserve">
<polygon fill="#685232" points="112.386,685.185 88.38,671.326 88.38,399.885 112.386,413.742 "/>
<polygon fill="#7C6239" points="136.323,671.319 112.302,685.185 112.309,413.742 136.323,399.877 "/>
<polygon fill="#685232" points="52.465,657.3 28.458,643.435 28.458,371.992 52.465,385.857 "/>
<polygon fill="#564329" points="76.5,643.315 52.486,657.188 52.486,385.745 76.5,371.88 "/>
<polygon fill="#685232" points="388.577,509.488 364.57,495.629 364.57,224.188 388.577,238.053 "/>
<polygon fill="#7C6239" points="412.737,496.078 388.717,509.943 388.724,238.509 412.737,224.637 "/>
<polygon fill="#685232" points="326.481,481.042 302.467,467.184 302.467,195.742 326.481,209.6 "/>
<polygon fill="#564329" points="350.179,467.401 326.159,481.267 326.166,209.831 350.179,195.966 "/>
<polygon fill="#685232" points="412.765,201.773 338.446,158.873 117.689,289.397 191.995,332.297 "/>
<polygon fill="#7C6239" points="197.633,379.385 113.144,428.162 113.151,141.249 197.633,92.464 "/>
<polygon fill="#685232" points="113.165,522.441 28.655,473.657 28.669,92.808 113.151,141.585 "/>
<polygon fill="#7C6239" points="413.025,350.02 112.625,523.451 112.625,375.316 413.025,201.885 "/>
<polygon fill="#59452C" points="113.263,142.006 29.567,93.643 113.214,45.208 196.904,93.572 "/>
<path fill="#D8D8D8" d="M165.239,163.621c-0.035,11.972-8.493,26.51-18.894,32.492c-10.408,5.976-18.817,1.129-18.775-10.835
	c0.028-11.972,8.486-26.517,18.887-32.493C156.865,146.803,165.274,151.656,165.239,163.621z"/>
<path fill="#272822" d="M156.914,170.417c-0.021,6.122-4.348,13.57-9.671,16.628c-5.323,3.058-9.622,0.575-9.608-5.547
	c0.021-6.123,4.349-13.563,9.664-16.628C152.622,161.812,156.928,164.294,156.914,170.417z"/>
<path fill="#FFFFFF" d="M167.946,163.621c-0.028,11.972-8.486,26.51-18.894,32.492c-10.408,5.976-18.81,1.129-18.775-10.835
	c0.035-11.972,8.493-26.517,18.894-32.493C159.579,146.803,167.981,151.656,167.946,163.621z"/>
<path fill="#272822" d="M159.621,170.417c-0.021,6.122-4.348,13.57-9.671,16.628c-5.323,3.058-9.622,0.575-9.601-5.547
	c0.014-6.123,4.341-13.563,9.664-16.628C155.336,161.812,159.635,164.294,159.621,170.417z"/>
<polygon fill="#687C1E" points="113.523,373.683 28.866,325.516 28.866,254.829 113.523,302.996 "/>
<polygon fill="#7EA022" points="198.531,323.713 112.983,373.451 112.976,302.765 198.524,253.026 "/>
<polygon fill="#685232" points="55.817,256.981 14.754,233.27 14.754,185.839 55.817,209.551 "/>
<polygon fill="#7C6239" points="97.048,232.821 55.979,256.533 55.979,209.109 97.048,185.397 "/>
<polygon fill="#59452C" points="56.056,209.445 14.993,185.733 56.056,162.021 97.132,185.733 "/>
<polygon fill="#7EA022" points="113.523,375.485 28.866,327.325 28.866,256.631 113.523,304.798 "/>
<polygon fill="#88B723" points="198.531,325.684 112.983,375.422 112.976,304.735 198.524,254.997 "/>
<path fill="#FFFFFF" d="M155.624,170.831c0,4.13-0.225,7.609-4.496,8.746c4.86,2.903,9.012-5.246,5.4-8.297"/>
<g>
	<polygon fill="#CCA440" points="124.353,30.249 0,101.707 0.014,72.602 124.148,4.433 	"/>
	<polygon fill="#997734" points="224.088,91.874 124.205,34.372 124.213,4.433 224.088,61.941 	"/>
	<polyline fill="#C69C47" points="40.172,39.316 4.166,78.864 105.466,138.197 122.536,128.119 111.617,65.434 	"/>
	<polygon fill="#EDBF4A" points="105.157,162.954 0.105,102.479 0.112,72.539 105.157,133.014 	"/>
	<polyline fill="#BA933E" points="176.047,39.268 206.766,77.188 105.466,138.197 108.145,78.584 	"/>
	<polygon fill="#E5BB45" points="224.124,90.338 104.919,162.54 104.926,133.428 224.118,61.233 	"/>
	<polygon fill="#E5BB45" points="108.145,78.584 40.172,39.316 108.074,0 176.047,39.268 	"/>
</g>
</svg>
