<?xml version="1.0" encoding="utf-8"?>
<!-- Generator: Adobe Illustrator 16.0.0, SVG Export Plug-In . SVG Version: 6.00 Build 0)  -->
<!DOCTYPE svg PUBLIC "-//W3C//DTD SVG 1.1//EN" "http://www.w3.org/Graphics/SVG/1.1/DTD/svg11.dtd">
<svg version="1.2" id="Layer_1" xmlns="http://www.w3.org/2000/svg" xmlns:xlink="http://www.w3.org/1999/xlink" x="0px" y="0px" width="577.498px" height="383px" viewBox="0 0 577.498 383" enable-background="new 0 0 577.498 383" xml:space="preserve">
<g id="g853" transform="matrix(0.804830,-0.593505,0.593505,0.804830,-38.74979,69.86486)">
	<path id="path838" fill="#F3FAFA" d="M-133.341,274.867l445.049,176.644l74.763-138.3L-133.341,274.867z"/>
	<path id="path837" fill="#F3FAFA" d="M-151.327,270.498l536.324,69.571l-76.569,113.957L-151.327,270.498z"/>
		<linearGradient id="path843_1_" gradientUnits="userSpaceOnUse" x1="-216.1274" y1="344.0388" x2="-219.9784" y2="349.2049" gradientTransform="matrix(68.9832 33.1707 61.3059 -11.6103 -5834.2642 11624.2725)">
		<stop  offset="0" style="stop-color:#000000;stop-opacity:0.2"/>
		<stop  offset="1" style="stop-color:#FFFFFF;stop-opacity:0"/>
	</linearGradient>
	<path id="path843" fill="url(#path843_1_)" d="M-1.503,332.957l307.045,122.68l65.284-105.146L-1.503,332.957z"/>
		<linearGradient id="path848_1_" gradientUnits="userSpaceOnUse" x1="-209.2249" y1="333.526" x2="-213.6779" y2="334.5566" gradientTransform="matrix(79.7634 25.3907 63.4956 2.562 -4168.2363 4786.6343)">
		<stop  offset="0" style="stop-color:#000000;stop-opacity:0.2"/>
		<stop  offset="1" style="stop-color:#FFFFFF;stop-opacity:0"/>
	</linearGradient>
	<path id="path848" fill="url(#path848_1_)" d="M-23.685,276.844l408.361,34.59l-17.106,35.022
		L-23.685,276.844z"/>
	<path id="path839" fill="#F3FAFA" d="M-143.802,273.341l527.811,63.441l49.396,113.814L-143.802,273.341
		z"/>
	<path id="path840" fill="#F3FAFA" d="M-148.623,271.055l534.41,43.513l28.466-90.156L-148.623,271.055z"
		/>
	<path id="path841" fill="#F3FAFA" d="M-144.203,271.281l184.458,63.873l1.927-40.776L-144.203,271.281z"
		/>
	<path id="path842" fill="#F3FAFA" d="M-146.038,271.384l188.559,17.107l2.704-38.938L-146.038,271.384z"
		/>
	<path id="path850" fill="#FFFAFA" d="M44.569,299.327l-0.717,28.437l277.089,84.491L44.569,299.327z"/>
	<path id="path851" fill="#FFFAFA" d="M-118.861,270.775l140.736-15.417l-2.734,28.003L-118.861,270.775z"/>
	<path id="path852" fill="#FFFAFA" d="M-122.698,276.62l136.445,17.968l-3.226,25.99L-122.698,276.62z"/>
</g>
</svg>
